<svg width="627" height="369" viewBox="0 0 627 369" fill="none" xmlns="http://www.w3.org/2000/svg">
<path d="M65.3127 261.375C47.0624 210.688 47.0624 158.312 65.3127 107.625C67.7107 102.478 72.344 97.7861 78.7568 94.0121C85.1697 90.238 93.1413 87.5112 101.888 86.1C242.008 72.4387 384.993 72.4387 525.113 86.1C533.859 87.5112 541.831 90.238 548.244 94.0121C554.656 97.7861 559.29 102.478 561.688 107.625C579.938 158.312 579.938 210.688 561.688 261.375C559.29 266.522 554.656 271.214 548.244 274.988C541.831 278.762 533.859 281.489 525.113 282.9C384.993 296.564 242.007 296.564 101.888 282.9C93.1413 281.489 85.1697 278.762 78.7568 274.988C72.344 271.214 67.7107 266.522 65.3127 261.375Z" stroke="black" stroke-width="2" stroke-linecap="round" stroke-linejoin="round"/>
<path d="M261.25 230.625L391.875 184.5L261.25 138.375V230.625Z" stroke="black" stroke-width="2" stroke-linecap="round" stroke-linejoin="round"/>
</svg>
