<svg width="509" height="50" viewBox="0 0 509 50" fill="none" xmlns="http://www.w3.org/2000/svg">
<path d="M2.57604 48.384C1.68004 48.384 1.0267 48.1786 0.616037 47.768C0.205371 47.3573 3.71486e-05 46.704 3.71486e-05 45.808V39.256C3.71486e-05 38.7706 0.0560372 38.36 0.168037 38.024C0.317371 37.688 0.522704 37.408 0.784037 37.184L6.38404 32.48C4.40537 31.8826 2.83737 30.8746 1.68004 29.456C0.560037 28 3.71486e-05 25.928 3.71486e-05 23.24V17.36C3.71486e-05 15.68 0.280037 14.1866 0.840037 12.88C1.40004 11.5733 2.2027 10.472 3.24804 9.57597L10.528 3.47197C11.536 2.65064 12.7867 2.01597 14.28 1.56797C15.7734 1.08264 17.472 0.83997 19.376 0.83997H35.056C35.952 0.83997 36.6054 1.0453 37.016 1.45597C37.4267 1.86664 37.632 2.51997 37.632 3.41597V10.08C37.632 10.5653 37.5574 10.976 37.408 11.312C37.296 11.648 37.1094 11.928 36.848 12.152L31.808 16.352C34.16 16.8746 36.0454 17.864 37.464 19.32C38.92 20.7386 39.648 22.96 39.648 25.984V31.864C39.648 33.544 39.368 35.0373 38.808 36.344C38.248 37.6506 37.4267 38.752 36.344 39.648L29.12 45.696C28.0747 46.5546 26.8054 47.208 25.312 47.656C23.8187 48.1413 22.1387 48.384 20.272 48.384H2.57604ZM27.496 41.72C31.08 41.72 33.8987 40.88 35.952 39.2C38.0427 37.4826 39.088 35.0373 39.088 31.864V25.984C39.088 22.848 38.2854 20.608 36.68 19.264C35.0747 17.92 32.9654 17.0613 30.352 16.688L22.008 15.568C21.5227 15.5306 21.1494 15.344 20.888 15.008C20.6267 14.672 20.496 14.2613 20.496 13.776C20.496 13.2906 20.6267 12.8986 20.888 12.6C21.1494 12.264 21.5227 12.096 22.008 12.096H35.056C35.7654 12.096 36.2694 11.9466 36.568 11.648C36.904 11.312 37.072 10.7893 37.072 10.08V3.41597C37.072 2.70664 36.904 2.20264 36.568 1.90397C36.2694 1.56797 35.7654 1.39997 35.056 1.39997H19.376C15.7547 1.39997 12.9174 2.25864 10.864 3.97597C8.8107 5.65597 7.78404 8.08264 7.78404 11.256V17.136C7.78404 20.272 8.56804 22.512 10.136 23.856C11.7414 25.2 13.8507 26.0586 16.464 26.432L24.864 27.608C25.3494 27.6453 25.704 27.8133 25.928 28.112C26.1894 28.4106 26.32 28.8773 26.32 29.512C26.32 29.96 26.1894 30.352 25.928 30.688C25.704 30.9866 25.3494 31.136 24.864 31.136H9.80004C9.0907 31.136 8.56804 31.304 8.23204 31.64C7.93337 31.9386 7.78404 32.4426 7.78404 33.152V39.704C7.78404 40.4133 7.93337 40.936 8.23204 41.272C8.56804 41.5706 9.0907 41.72 9.80004 41.72H27.496ZM32.032 6.43997V6.99997H19.6C18.032 6.99997 16.7814 7.4293 15.848 8.28797C14.9147 9.14664 14.448 10.2293 14.448 11.536V16.128C14.448 17.4346 14.7094 18.3493 15.232 18.872C15.7547 19.3946 16.4454 19.7306 17.304 19.88L29.12 22.288C30.24 22.512 31.1547 22.9973 31.864 23.744C32.6107 24.4906 32.984 25.8346 32.984 27.776V31.024C32.984 32.6666 32.424 34.0293 31.304 35.112C30.184 36.1573 28.672 36.68 26.768 36.68H12.824V36.12H26.768C28.4854 36.12 29.848 35.6533 30.856 34.72C31.9014 33.7493 32.424 32.5173 32.424 31.024V27.776C32.424 26.0213 32.1067 24.8266 31.472 24.192C30.8747 23.52 30.0534 23.072 29.008 22.848L17.192 20.44C16.2214 20.2533 15.4187 19.88 14.784 19.32C14.1867 18.7226 13.888 17.6586 13.888 16.128V11.536C13.888 10.0426 14.4107 8.8293 15.456 7.89597C16.5014 6.9253 17.8827 6.43997 19.6 6.43997H32.032ZM74.088 48.384H45.584C44.688 48.384 44.0347 48.1786 43.624 47.768C43.2134 47.3573 43.008 46.704 43.008 45.808V9.51997C43.008 9.03464 43.064 8.62397 43.176 8.28797C43.3254 7.95197 43.5307 7.67197 43.792 7.44797L51.016 1.34397C51.2027 1.19464 51.4454 1.08264 51.744 1.00797C52.08 0.895969 52.4347 0.83997 52.808 0.83997H61.488C62.384 0.83997 63.0374 1.0453 63.448 1.45597C63.8587 1.86664 64.064 2.51997 64.064 3.41597V26.208L64.176 26.096L71.4 19.992C71.5867 19.8426 71.8294 19.7306 72.128 19.656C72.464 19.544 72.8187 19.488 73.192 19.488H81.312C82.208 19.488 82.8614 19.6933 83.272 20.104C83.6827 20.5146 83.888 21.168 83.888 22.064V39.704C83.888 40.1893 83.8134 40.6 83.664 40.936C83.552 41.272 83.3654 41.552 83.104 41.776L75.824 47.824C75.6747 47.9733 75.432 48.104 75.096 48.216C74.7974 48.328 74.4614 48.384 74.088 48.384ZM81.312 41.72C82.0214 41.72 82.5254 41.5706 82.824 41.272C83.16 40.936 83.328 40.4133 83.328 39.704V22.064C83.328 21.3546 83.16 20.8506 82.824 20.552C82.5254 20.216 82.0214 20.048 81.312 20.048H73.192C72.4827 20.048 71.96 20.216 71.624 20.552C71.3254 20.8506 71.176 21.3546 71.176 22.064V31.136H63.504V3.41597C63.504 2.70664 63.336 2.20264 63 1.90397C62.7014 1.56797 62.1974 1.39997 61.488 1.39997H52.808C52.0987 1.39997 51.576 1.56797 51.24 1.90397C50.9414 2.20264 50.792 2.70664 50.792 3.41597V39.704C50.792 40.4133 50.9414 40.936 51.24 41.272C51.576 41.5706 52.0987 41.72 52.808 41.72H81.312ZM56.896 36.68V6.43997H57.456V36.12H76.944V25.088H77.504V36.68H56.896ZM119.444 45.696C118.137 46.816 116.308 47.6746 113.956 48.272C111.604 48.9066 108.58 49.224 104.884 49.224C101.225 49.224 98.2197 48.832 95.8677 48.048C93.553 47.3013 91.7237 46.2933 90.3797 45.024C89.073 43.7546 88.1583 42.2986 87.6357 40.656C87.1503 39.0133 86.9077 37.3146 86.9077 35.56V18.144C86.9077 16.4266 87.1503 14.84 87.6357 13.384C88.121 11.8906 88.9983 10.6213 90.2677 9.57597L97.5477 3.52797C98.8543 2.40797 100.665 1.5493 102.98 0.951968C105.332 0.317301 108.374 -3.29018e-05 112.108 -3.29018e-05C115.766 -3.29018e-05 118.753 0.298634 121.068 0.895969C123.42 1.4933 125.249 2.3333 126.556 3.41597C127.9 4.4613 128.814 5.73064 129.3 7.22397C129.785 8.67997 130.028 10.2853 130.028 12.04V31.136C130.028 32.8533 129.785 34.44 129.3 35.896C128.814 37.352 127.937 38.6026 126.668 39.648L119.444 45.696ZM129.468 31.136V12.04C129.468 10.3226 129.206 8.7733 128.684 7.39197C128.198 5.9733 127.302 4.75997 125.996 3.75197C124.726 2.74397 122.953 1.95997 120.676 1.39997C118.436 0.83997 115.58 0.55997 112.108 0.55997C108.636 0.55997 105.761 0.83997 103.484 1.39997C101.206 1.95997 99.4143 2.74397 98.1077 3.75197C96.8383 4.75997 95.9423 5.9733 95.4197 7.39197C94.9343 8.7733 94.6917 10.3226 94.6917 12.04V31.136C94.6917 32.8533 94.9343 34.4213 95.4197 35.84C95.9423 37.2213 96.8383 38.416 98.1077 39.424C99.4143 40.3946 101.206 41.16 103.484 41.72C105.761 42.28 108.636 42.56 112.108 42.56C115.58 42.56 118.436 42.28 120.676 41.72C122.953 41.16 124.726 40.3946 125.996 39.424C127.302 38.416 128.198 37.2213 128.684 35.84C129.206 34.4213 129.468 32.8533 129.468 31.136ZM123.364 29.848C123.364 32.088 122.561 33.9173 120.956 35.336C119.35 36.7173 116.364 37.408 111.996 37.408C107.628 37.408 104.66 36.7173 103.092 35.336C101.524 33.9173 100.74 32.088 100.74 29.848V13.328C100.74 11.088 101.524 9.2773 103.092 7.89597C104.66 6.4773 107.628 5.76797 111.996 5.76797C116.364 5.76797 119.35 6.4773 120.956 7.89597C122.561 9.2773 123.364 11.088 123.364 13.328V29.848ZM101.3 29.848C101.3 31.9386 102.046 33.6373 103.54 34.944C105.033 36.2133 107.852 36.848 111.996 36.848C116.14 36.848 118.977 36.2133 120.508 34.944C122.038 33.6373 122.804 31.9386 122.804 29.848V13.328C122.804 11.2373 122.038 9.5573 120.508 8.28797C118.977 6.9813 116.14 6.32797 111.996 6.32797C107.852 6.32797 105.033 6.9813 103.54 8.28797C102.046 9.5573 101.3 11.2373 101.3 13.328V29.848ZM107.404 29.12V14.056C107.404 13.3466 107.684 12.7493 108.244 12.264C108.804 11.7413 110.092 11.48 112.108 11.48C114.124 11.48 115.412 11.7413 115.972 12.264C116.532 12.7493 116.812 13.3466 116.812 14.056V29.12C116.812 29.8666 116.532 30.5013 115.972 31.024C115.412 31.5093 114.124 31.752 112.108 31.752C110.092 31.752 108.804 31.5093 108.244 31.024C107.684 30.5013 107.404 29.8666 107.404 29.12ZM107.964 29.12C107.964 29.4933 108.038 29.8293 108.188 30.128C108.337 30.3893 108.617 30.6133 109.028 30.8V20.16C109.028 19.7866 108.953 19.4693 108.804 19.208C108.654 18.9093 108.374 18.6853 107.964 18.536V29.12ZM161.887 20.16C162.559 20.16 163.044 20.0106 163.343 19.712C163.642 19.4133 164.108 18.7786 164.743 17.808L171.575 7.39197C171.799 7.01864 172.042 6.77597 172.303 6.66397C172.602 6.51463 172.9 6.43997 173.199 6.43997H174.151C174.674 6.43997 175.047 6.5893 175.271 6.88797C175.532 7.1493 175.663 7.57864 175.663 8.17597V36.68H175.103V8.17597C175.103 7.8773 175.028 7.61597 174.879 7.39197C174.767 7.13064 174.524 6.99997 174.151 6.99997H173.311C173.05 6.99997 172.826 7.0373 172.639 7.11197C172.452 7.18663 172.247 7.41064 172.023 7.78397L165.191 18.088C164.519 19.096 163.996 19.7866 163.623 20.16C163.287 20.5333 162.708 20.72 161.887 20.72C161.066 20.72 160.468 20.5333 160.095 20.16C159.759 19.7866 159.255 19.096 158.583 18.088L151.751 7.78397C151.527 7.41064 151.303 7.18663 151.079 7.11197C150.892 7.0373 150.668 6.99997 150.407 6.99997H149.567C149.194 6.99997 148.951 7.13064 148.839 7.39197C148.727 7.61597 148.671 7.8773 148.671 8.17597V36.68H148.111V8.17597C148.111 7.57864 148.223 7.1493 148.447 6.88797C148.708 6.5893 149.082 6.43997 149.567 6.43997H150.519C150.818 6.43997 151.116 6.51463 151.415 6.66397C151.714 6.77597 151.975 7.01864 152.199 7.39197L159.031 17.808C159.666 18.7786 160.132 19.4133 160.431 19.712C160.73 20.0106 161.215 20.16 161.887 20.16ZM152.535 41.72C153.244 41.72 153.748 41.5706 154.047 41.272C154.383 40.936 154.551 40.4133 154.551 39.704V19.992L157.855 26.096C158.191 26.7306 158.583 27.1973 159.031 27.496C159.516 27.7573 160.114 27.888 160.823 27.888H163.063C163.772 27.888 164.351 27.7573 164.799 27.496C165.284 27.1973 165.695 26.7306 166.031 26.096L169.335 19.992V39.704C169.335 40.4133 169.484 40.936 169.783 41.272C170.119 41.5706 170.642 41.72 171.351 41.72H179.975C180.684 41.72 181.188 41.5706 181.487 41.272C181.823 40.936 181.991 40.4133 181.991 39.704V3.41597C181.991 2.70664 181.823 2.20264 181.487 1.90397C181.188 1.56797 180.684 1.39997 179.975 1.39997H170.903C170.306 1.39997 169.802 1.53064 169.391 1.79197C169.018 2.0533 168.663 2.48264 168.327 3.07997L163.343 12.208C163.156 12.544 162.988 12.7866 162.839 12.936C162.727 13.0853 162.559 13.16 162.335 13.16H161.831C161.607 13.16 161.42 13.0853 161.271 12.936C161.159 12.7866 161.01 12.544 160.823 12.208L155.783 3.07997C155.447 2.48264 155.074 2.0533 154.663 1.79197C154.29 1.53064 153.804 1.39997 153.207 1.39997H144.191C143.482 1.39997 142.959 1.56797 142.623 1.90397C142.324 2.20264 142.175 2.70664 142.175 3.41597V39.704C142.175 40.4133 142.324 40.936 142.623 41.272C142.959 41.5706 143.482 41.72 144.191 41.72H152.535ZM154.327 41.776L147.047 47.824C146.898 47.9733 146.655 48.104 146.319 48.216C146.02 48.328 145.684 48.384 145.311 48.384H136.967C136.071 48.384 135.418 48.1786 135.007 47.768C134.596 47.3573 134.391 46.704 134.391 45.808V9.51997C134.391 9.03464 134.447 8.62397 134.559 8.28797C134.708 7.95197 134.914 7.67197 135.175 7.44797L142.399 1.34397C142.586 1.19464 142.828 1.08264 143.127 1.00797C143.463 0.895969 143.818 0.83997 144.191 0.83997H153.207C153.916 0.83997 154.495 0.989302 154.943 1.28797C155.428 1.58663 155.876 2.09063 156.287 2.79997L160.095 9.79997L160.599 8.90397C160.748 8.64263 160.898 8.39997 161.047 8.17597C161.234 7.91464 161.42 7.7093 161.607 7.55997L168.831 1.51197C169.13 1.28797 169.428 1.11997 169.727 1.00797C170.063 0.895969 170.455 0.83997 170.903 0.83997H179.975C180.871 0.83997 181.524 1.0453 181.935 1.45597C182.346 1.86664 182.551 2.51997 182.551 3.41597V39.704C182.551 40.1893 182.476 40.6 182.327 40.936C182.215 41.272 182.028 41.552 181.767 41.776L174.487 47.824C174.338 47.9733 174.095 48.104 173.759 48.216C173.46 48.328 173.124 48.384 172.751 48.384H164.127C163.194 48.384 162.522 48.1786 162.111 47.768C161.738 47.3573 161.551 46.704 161.551 45.808V31.024L158.247 33.768C157.948 34.0293 157.594 34.2346 157.183 34.384C156.81 34.496 156.362 34.552 155.839 34.552H155.111V39.704C155.111 40.1893 155.036 40.6 154.887 40.936C154.775 41.272 154.588 41.552 154.327 41.776ZM208.547 48.384H199.475C198.542 48.384 197.87 48.1786 197.459 47.768C197.086 47.3573 196.899 46.704 196.899 45.808V38.808L188.443 27.496C187.547 26.3013 186.95 25.256 186.651 24.36C186.352 23.464 186.203 22.1013 186.203 20.272V9.51997C186.203 9.03464 186.259 8.62397 186.371 8.28797C186.52 7.95197 186.726 7.67197 186.987 7.44797L194.211 1.34397C194.398 1.19464 194.64 1.08264 194.939 1.00797C195.275 0.895969 195.63 0.83997 196.003 0.83997H204.627C205.523 0.83997 206.176 1.0453 206.587 1.45597C206.998 1.86664 207.203 2.51997 207.203 3.41597V12.6C207.203 12.936 207.222 13.272 207.259 13.608C207.296 13.944 207.408 14.2986 207.595 14.672L208.267 15.624V9.51997C208.267 9.03464 208.323 8.62397 208.435 8.28797C208.584 7.95197 208.79 7.67197 209.051 7.44797L216.275 1.34397C216.462 1.19464 216.704 1.08264 217.003 1.00797C217.339 0.895969 217.694 0.83997 218.067 0.83997H226.411C227.307 0.83997 227.96 1.0453 228.371 1.45597C228.782 1.86664 228.987 2.51997 228.987 3.41597V14.168C228.987 15.9973 228.838 17.36 228.539 18.256C228.24 19.152 227.643 20.1973 226.747 21.392L218.347 32.76V39.704C218.347 40.1893 218.272 40.6 218.123 40.936C218.011 41.272 217.824 41.552 217.563 41.776L210.283 47.824C210.134 47.9733 209.891 48.104 209.555 48.216C209.256 48.328 208.92 48.384 208.547 48.384ZM215.771 41.72C216.48 41.72 216.984 41.5706 217.283 41.272C217.619 40.936 217.787 40.4133 217.787 39.704V32.592L226.299 21.056C227.12 19.8986 227.68 18.8906 227.979 18.032C228.278 17.1733 228.427 15.8853 228.427 14.168V3.41597C228.427 2.70664 228.259 2.20264 227.923 1.90397C227.624 1.56797 227.12 1.39997 226.411 1.39997H218.067C217.358 1.39997 216.835 1.56797 216.499 1.90397C216.2 2.20264 216.051 2.70664 216.051 3.41597V12.6C216.051 12.9733 216.032 13.3653 215.995 13.776C215.958 14.1866 215.808 14.5786 215.547 14.952L212.971 18.984C212.784 19.32 212.579 19.5626 212.355 19.712C212.168 19.8613 211.926 19.936 211.627 19.936H211.067C210.768 19.936 210.507 19.8613 210.283 19.712C210.096 19.5626 209.91 19.32 209.723 18.984L207.147 14.952C206.886 14.5786 206.736 14.1866 206.699 13.776C206.662 13.3653 206.643 12.9733 206.643 12.6V3.41597C206.643 2.70664 206.475 2.20264 206.139 1.90397C205.84 1.56797 205.336 1.39997 204.627 1.39997H196.003C195.294 1.39997 194.771 1.56797 194.435 1.90397C194.136 2.20264 193.987 2.70664 193.987 3.41597V14.168C193.987 15.8853 194.118 17.1733 194.379 18.032C194.678 18.8906 195.256 19.8986 196.115 21.056L204.683 32.536V39.704C204.683 40.4133 204.832 40.936 205.131 41.272C205.467 41.5706 205.99 41.72 206.699 41.72H215.771ZM211.907 27.104H211.515V36.68H210.955V27.104H210.395C209.574 27.104 208.827 26.9173 208.155 26.544C207.52 26.1706 206.904 25.5733 206.307 24.752L200.875 17.192C200.464 16.632 200.222 15.9786 200.147 15.232C200.072 14.4853 200.035 13.7013 200.035 12.88V6.43997H200.595V12.88C200.595 13.664 200.632 14.4106 200.707 15.12C200.782 15.792 201.006 16.408 201.379 16.968L206.811 24.528C207.296 25.2746 207.856 25.7973 208.491 26.096C209.126 26.3946 209.76 26.544 210.395 26.544H211.907C212.616 26.544 213.251 26.3946 213.811 26.096C214.408 25.76 214.987 25.2373 215.547 24.528L221.147 16.968C221.52 16.4826 221.744 15.8853 221.819 15.176C221.894 14.4293 221.931 13.664 221.931 12.88V6.43997H222.491V12.88C222.491 13.7013 222.454 14.4853 222.379 15.232C222.342 15.9413 222.099 16.5946 221.651 17.192L216.051 24.752C215.454 25.5733 214.819 26.1706 214.147 26.544C213.512 26.9173 212.766 27.104 211.907 27.104ZM244.628 24.752V26.488H266.468V24.752C266.468 23.744 266.374 22.8106 266.188 21.952C266.038 21.0933 265.833 20.2906 265.572 19.544L261.708 10.416C261.297 9.4453 260.868 8.64263 260.42 8.00797C259.972 7.33597 259.225 6.99997 258.18 6.99997H252.692C251.572 6.99997 250.788 7.33597 250.34 8.00797C249.892 8.64263 249.481 9.42664 249.108 10.36L245.524 19.544C245.262 20.2906 245.038 21.0933 244.852 21.952C244.702 22.8106 244.628 23.744 244.628 24.752ZM253.588 13.16C253.737 12.824 253.886 12.5813 254.036 12.432C254.222 12.2826 254.428 12.208 254.652 12.208H256.052C256.276 12.208 256.462 12.2826 256.612 12.432C256.798 12.5813 256.966 12.824 257.116 13.16L259.748 21.672H250.956L253.588 13.16ZM266.468 36.68V27.048H244.628V36.68H244.068V24.752C244.068 23.7066 244.142 22.7546 244.292 21.896C244.478 21 244.721 20.1413 245.02 19.32L248.604 10.136C249.014 9.09064 249.481 8.2133 250.004 7.50397C250.526 6.79464 251.422 6.43997 252.692 6.43997H258.18C259.412 6.43997 260.27 6.79464 260.756 7.50397C261.278 8.2133 261.764 9.1093 262.212 10.192L266.076 19.32C266.374 20.1413 266.598 21 266.748 21.896C266.934 22.7546 267.028 23.7066 267.028 24.752V36.68H266.468ZM250.396 39.704V31.864H260.308V39.704C260.308 40.4133 260.476 40.936 260.812 41.272C261.185 41.5706 261.745 41.72 262.492 41.72H270.948C271.657 41.72 272.161 41.5706 272.46 41.272C272.796 40.936 272.964 40.4133 272.964 39.704V24.92C272.964 23.8 272.777 22.512 272.404 21.056C272.068 19.6 271.526 17.9013 270.78 15.96L265.908 3.24797C265.684 2.6133 265.329 2.14664 264.844 1.84797C264.396 1.5493 263.817 1.39997 263.108 1.39997H248.044C247.297 1.39997 246.681 1.5493 246.196 1.84797C245.748 2.14664 245.412 2.6133 245.188 3.24797L240.316 15.96C239.569 17.9013 239.009 19.6 238.636 21.056C238.3 22.512 238.132 23.8 238.132 24.92V39.704C238.132 40.4133 238.281 40.936 238.58 41.272C238.916 41.5706 239.438 41.72 240.148 41.72H248.38C249.089 41.72 249.593 41.5706 249.892 41.272C250.228 40.936 250.396 40.4133 250.396 39.704ZM242.892 47.824C242.742 47.9733 242.5 48.104 242.164 48.216C241.865 48.328 241.529 48.384 241.156 48.384H232.924C232.028 48.384 231.374 48.1786 230.964 47.768C230.553 47.3573 230.348 46.704 230.348 45.808V31.024C230.348 29.8666 230.516 28.56 230.852 27.104C231.225 25.6106 231.804 23.856 232.588 21.84L237.404 9.18397C237.516 8.84797 237.646 8.56797 237.796 8.34397C237.982 8.08264 238.169 7.85863 238.356 7.67197L238.412 7.61597L245.58 1.62397C245.878 1.36264 246.233 1.17597 246.644 1.06397C247.054 0.914636 247.521 0.83997 248.044 0.83997H263.108C263.966 0.83997 264.657 1.02664 265.18 1.39997C265.74 1.73597 266.15 2.2773 266.412 3.02397L271.284 15.736C272.068 17.752 272.628 19.5066 272.964 21C273.337 22.456 273.524 23.7626 273.524 24.92V39.704C273.524 40.1893 273.449 40.6 273.3 40.936C273.188 41.272 273.001 41.552 272.74 41.776L265.46 47.824C265.31 47.9733 265.068 48.104 264.732 48.216C264.433 48.328 264.097 48.384 263.724 48.384H255.268C254.334 48.384 253.644 48.16 253.196 47.712C252.748 47.3013 252.524 46.6666 252.524 45.808V38.528H250.956V39.704C250.956 40.1893 250.881 40.6 250.732 40.936C250.62 41.272 250.433 41.552 250.172 41.776L242.892 47.824ZM292.12 36.68H291.56V6.43997H292.12V21.336H304.272L310.712 6.43997H311.328L304.888 21.336H307.184C309.461 21.336 311.16 21.7653 312.28 22.624C313.4 23.4826 313.96 24.8826 313.96 26.824V36.68H313.4V26.824C313.4 25.032 312.877 23.7626 311.832 23.016C310.787 22.2693 309.237 21.896 307.184 21.896H292.12V36.68ZM296.152 41.72C296.861 41.72 297.365 41.5706 297.664 41.272C298 40.936 298.168 40.4133 298.168 39.704V26.88H305.56C306.157 26.88 306.605 27.048 306.904 27.384C307.203 27.72 307.352 28.1866 307.352 28.784V39.704C307.352 40.4133 307.501 40.936 307.8 41.272C308.136 41.5706 308.659 41.72 309.368 41.72H317.992C318.701 41.72 319.205 41.5706 319.504 41.272C319.84 40.936 320.008 40.4133 320.008 39.704V23.912C320.008 21.672 319.373 19.88 318.104 18.536C316.872 17.1546 315.211 16.408 313.12 16.296L318.832 3.24797C319.093 2.65064 319.112 2.20264 318.888 1.90397C318.664 1.56797 318.235 1.39997 317.6 1.39997H308.976C308.267 1.39997 307.688 1.5493 307.24 1.84797C306.792 2.1093 306.437 2.57597 306.176 3.24797L300.408 16.296H298.168V3.41597C298.168 2.70664 298 2.20264 297.664 1.90397C297.365 1.56797 296.861 1.39997 296.152 1.39997H287.472C286.763 1.39997 286.24 1.56797 285.904 1.90397C285.605 2.20264 285.456 2.70664 285.456 3.41597V39.704C285.456 40.4133 285.605 40.936 285.904 41.272C286.24 41.5706 286.763 41.72 287.472 41.72H296.152ZM297.944 41.776L290.664 47.824C290.515 47.9733 290.272 48.104 289.936 48.216C289.637 48.328 289.301 48.384 288.928 48.384H280.248C279.352 48.384 278.699 48.1786 278.288 47.768C277.877 47.3573 277.672 46.704 277.672 45.808V9.51997C277.672 9.03464 277.728 8.62397 277.84 8.28797C277.989 7.95197 278.195 7.67197 278.456 7.44797L285.68 1.34397C285.867 1.19464 286.109 1.08264 286.408 1.00797C286.744 0.895969 287.099 0.83997 287.472 0.83997H296.152C297.048 0.83997 297.701 1.0453 298.112 1.45597C298.523 1.86664 298.728 2.51997 298.728 3.41597V8.51197C298.84 8.36264 298.952 8.2133 299.064 8.06397C299.176 7.8773 299.307 7.72797 299.456 7.61597L306.68 1.51197C306.941 1.28797 307.259 1.11997 307.632 1.00797C308.043 0.895969 308.491 0.83997 308.976 0.83997H317.6C318.533 0.83997 319.149 1.08264 319.448 1.56797C319.747 2.01597 319.709 2.65064 319.336 3.47197L313.96 15.792C315.976 16.0533 317.581 16.912 318.776 18.368C319.971 19.824 320.568 21.672 320.568 23.912V39.704C320.568 40.1893 320.493 40.6 320.344 40.936C320.232 41.272 320.045 41.552 319.784 41.776L312.504 47.824C312.355 47.9733 312.112 48.104 311.776 48.216C311.477 48.328 311.141 48.384 310.768 48.384H302.144C301.248 48.384 300.595 48.1786 300.184 47.768C299.773 47.3573 299.568 46.704 299.568 45.808V34.888C299.568 34.5146 299.493 34.216 299.344 33.992C299.195 33.768 298.989 33.6373 298.728 33.6V39.704C298.728 40.1893 298.653 40.6 298.504 40.936C298.392 41.272 298.205 41.552 297.944 41.776ZM356.951 45.696C355.645 46.816 353.815 47.6746 351.463 48.272C349.111 48.9066 346.087 49.224 342.391 49.224C338.733 49.224 335.727 48.832 333.375 48.048C331.061 47.3013 329.231 46.2933 327.887 45.024C326.581 43.7546 325.666 42.2986 325.143 40.656C324.658 39.0133 324.415 37.3146 324.415 35.56V18.144C324.415 16.4266 324.658 14.84 325.143 13.384C325.629 11.8906 326.506 10.6213 327.775 9.57597L335.055 3.52797C336.362 2.40797 338.173 1.5493 340.487 0.951968C342.839 0.317301 345.882 -3.29018e-05 349.615 -3.29018e-05C353.274 -3.29018e-05 356.261 0.298634 358.575 0.895969C360.927 1.4933 362.757 2.3333 364.063 3.41597C365.407 4.4613 366.322 5.73064 366.807 7.22397C367.293 8.67997 367.535 10.2853 367.535 12.04V31.136C367.535 32.8533 367.293 34.44 366.807 35.896C366.322 37.352 365.445 38.6026 364.175 39.648L356.951 45.696ZM366.975 31.136V12.04C366.975 10.3226 366.714 8.7733 366.191 7.39197C365.706 5.9733 364.81 4.75997 363.503 3.75197C362.234 2.74397 360.461 1.95997 358.183 1.39997C355.943 0.83997 353.087 0.55997 349.615 0.55997C346.143 0.55997 343.269 0.83997 340.991 1.39997C338.714 1.95997 336.922 2.74397 335.615 3.75197C334.346 4.75997 333.45 5.9733 332.927 7.39197C332.442 8.7733 332.199 10.3226 332.199 12.04V31.136C332.199 32.8533 332.442 34.4213 332.927 35.84C333.45 37.2213 334.346 38.416 335.615 39.424C336.922 40.3946 338.714 41.16 340.991 41.72C343.269 42.28 346.143 42.56 349.615 42.56C353.087 42.56 355.943 42.28 358.183 41.72C360.461 41.16 362.234 40.3946 363.503 39.424C364.81 38.416 365.706 37.2213 366.191 35.84C366.714 34.4213 366.975 32.8533 366.975 31.136ZM360.871 29.848C360.871 32.088 360.069 33.9173 358.463 35.336C356.858 36.7173 353.871 37.408 349.503 37.408C345.135 37.408 342.167 36.7173 340.599 35.336C339.031 33.9173 338.247 32.088 338.247 29.848V13.328C338.247 11.088 339.031 9.2773 340.599 7.89597C342.167 6.4773 345.135 5.76797 349.503 5.76797C353.871 5.76797 356.858 6.4773 358.463 7.89597C360.069 9.2773 360.871 11.088 360.871 13.328V29.848ZM338.807 29.848C338.807 31.9386 339.554 33.6373 341.047 34.944C342.541 36.2133 345.359 36.848 349.503 36.848C353.647 36.848 356.485 36.2133 358.015 34.944C359.546 33.6373 360.311 31.9386 360.311 29.848V13.328C360.311 11.2373 359.546 9.5573 358.015 8.28797C356.485 6.9813 353.647 6.32797 349.503 6.32797C345.359 6.32797 342.541 6.9813 341.047 8.28797C339.554 9.5573 338.807 11.2373 338.807 13.328V29.848ZM344.911 29.12V14.056C344.911 13.3466 345.191 12.7493 345.751 12.264C346.311 11.7413 347.599 11.48 349.615 11.48C351.631 11.48 352.919 11.7413 353.479 12.264C354.039 12.7493 354.319 13.3466 354.319 14.056V29.12C354.319 29.8666 354.039 30.5013 353.479 31.024C352.919 31.5093 351.631 31.752 349.615 31.752C347.599 31.752 346.311 31.5093 345.751 31.024C345.191 30.5013 344.911 29.8666 344.911 29.12ZM345.471 29.12C345.471 29.4933 345.546 29.8293 345.695 30.128C345.845 30.3893 346.125 30.6133 346.535 30.8V20.16C346.535 19.7866 346.461 19.4693 346.311 19.208C346.162 18.9093 345.882 18.6853 345.471 18.536V29.12ZM381.755 48.384C380.896 48.384 380.205 48.216 379.683 47.88C379.16 47.5813 378.731 47.0213 378.395 46.2L372.907 32.48C372.571 31.6213 372.272 30.8933 372.011 30.296C371.787 29.6613 371.6 29.064 371.451 28.504C371.301 27.9066 371.189 27.2906 371.115 26.656C371.077 25.984 371.059 25.2 371.059 24.304V9.51997C371.059 9.03464 371.115 8.62397 371.227 8.28797C371.376 7.95197 371.581 7.67197 371.843 7.44797L379.067 1.34397C379.253 1.19464 379.496 1.08264 379.795 1.00797C380.131 0.895969 380.485 0.83997 380.859 0.83997H389.763C390.659 0.83997 391.331 1.06397 391.779 1.51197C392.264 1.92264 392.507 2.5573 392.507 3.41597V18.872C392.507 19.2453 392.544 19.6 392.619 19.936C392.693 20.272 392.787 20.6266 392.899 21L393.067 21.392V9.51997C393.067 9.03464 393.123 8.62397 393.235 8.28797C393.384 7.95197 393.589 7.67197 393.851 7.44797L401.075 1.34397C401.261 1.19464 401.504 1.08264 401.803 1.00797C402.139 0.895969 402.493 0.83997 402.867 0.83997H411.659C412.592 0.83997 413.245 1.0453 413.619 1.45597C414.029 1.86664 414.235 2.51997 414.235 3.41597V18.2C414.235 19.096 414.197 19.88 414.123 20.552C414.085 21.1866 413.992 21.8026 413.843 22.4C413.693 22.96 413.488 23.5573 413.227 24.192C413.003 24.7893 412.723 25.5173 412.387 26.376L406.899 40.096C406.787 40.432 406.637 40.7306 406.451 40.992C406.264 41.2533 406.077 41.4586 405.891 41.608L398.667 47.6C398.368 47.8613 398.013 48.048 397.603 48.16C397.229 48.3093 396.8 48.384 396.315 48.384H381.755ZM403.539 41.72C404.248 41.72 404.827 41.5893 405.275 41.328C405.76 41.0666 406.133 40.5813 406.395 39.872L411.883 26.152C412.219 25.3306 412.499 24.6213 412.723 24.024C412.947 23.3893 413.133 22.792 413.283 22.232C413.432 21.672 413.525 21.0933 413.563 20.496C413.637 19.8613 413.675 19.096 413.675 18.2V3.41597C413.675 2.70664 413.507 2.20264 413.171 1.90397C412.872 1.56797 412.368 1.39997 411.659 1.39997H402.867C402.157 1.39997 401.635 1.56797 401.299 1.90397C401 2.20264 400.851 2.70664 400.851 3.41597V18.816C400.851 19.1893 400.813 19.5626 400.739 19.936C400.664 20.3093 400.552 20.7013 400.403 21.112L397.771 29.008C397.659 29.3813 397.528 29.6426 397.379 29.792C397.229 29.904 397.005 29.96 396.707 29.96H396.091C395.792 29.96 395.568 29.904 395.419 29.792C395.269 29.6426 395.139 29.3813 395.027 29.008L392.395 21.168C392.245 20.7573 392.133 20.3653 392.059 19.992C391.984 19.6186 391.947 19.2453 391.947 18.872V3.41597C391.947 2.70664 391.76 2.20264 391.387 1.90397C391.013 1.56797 390.472 1.39997 389.763 1.39997H380.859C380.149 1.39997 379.627 1.56797 379.291 1.90397C378.992 2.20264 378.843 2.70664 378.843 3.41597V18.2C378.843 19.096 378.861 19.8613 378.899 20.496C378.973 21.0933 379.085 21.672 379.235 22.232C379.384 22.792 379.571 23.3893 379.795 24.024C380.019 24.6213 380.299 25.3306 380.635 26.152L386.123 39.872C386.384 40.5813 386.739 41.0666 387.187 41.328C387.672 41.5893 388.269 41.72 388.979 41.72H403.539ZM385.171 6.43997H385.731V18.536C385.731 19.5066 385.805 20.44 385.955 21.336C386.104 22.1946 386.328 22.9973 386.627 23.744L390.323 32.704C390.696 33.6746 391.107 34.496 391.555 35.168C392.04 35.8026 392.805 36.12 393.851 36.12H398.779C399.824 36.12 400.571 35.8026 401.019 35.168C401.504 34.496 401.933 33.6746 402.307 32.704L406.003 23.744C406.301 22.9973 406.525 22.1946 406.675 21.336C406.824 20.44 406.899 19.5066 406.899 18.536V6.43997H407.459V18.536C407.459 19.5813 407.384 20.552 407.235 21.448C407.123 22.3066 406.899 23.1466 406.563 23.968L402.867 32.928C402.419 34.0106 401.915 34.9066 401.355 35.616C400.795 36.3253 399.936 36.68 398.779 36.68H393.851C392.693 36.68 391.835 36.3253 391.275 35.616C390.715 34.9066 390.211 34.0106 389.763 32.928L386.067 23.968C385.731 23.1466 385.488 22.3066 385.339 21.448C385.227 20.552 385.171 19.5813 385.171 18.536V6.43997ZM432.831 36.68H432.271V6.43997H432.831V21.336H444.983L451.423 6.43997H452.039L445.599 21.336H447.895C450.172 21.336 451.871 21.7653 452.991 22.624C454.111 23.4826 454.671 24.8826 454.671 26.824V36.68H454.111V26.824C454.111 25.032 453.588 23.7626 452.543 23.016C451.498 22.2693 449.948 21.896 447.895 21.896H432.831V36.68ZM436.863 41.72C437.572 41.72 438.076 41.5706 438.375 41.272C438.711 40.936 438.879 40.4133 438.879 39.704V26.88H446.271C446.868 26.88 447.316 27.048 447.615 27.384C447.914 27.72 448.063 28.1866 448.063 28.784V39.704C448.063 40.4133 448.212 40.936 448.511 41.272C448.847 41.5706 449.37 41.72 450.079 41.72H458.703C459.412 41.72 459.916 41.5706 460.215 41.272C460.551 40.936 460.719 40.4133 460.719 39.704V23.912C460.719 21.672 460.084 19.88 458.815 18.536C457.583 17.1546 455.922 16.408 453.831 16.296L459.543 3.24797C459.804 2.65064 459.823 2.20264 459.599 1.90397C459.375 1.56797 458.946 1.39997 458.311 1.39997H449.687C448.978 1.39997 448.399 1.5493 447.951 1.84797C447.503 2.1093 447.148 2.57597 446.887 3.24797L441.119 16.296H438.879V3.41597C438.879 2.70664 438.711 2.20264 438.375 1.90397C438.076 1.56797 437.572 1.39997 436.863 1.39997H428.183C427.474 1.39997 426.951 1.56797 426.615 1.90397C426.316 2.20264 426.167 2.70664 426.167 3.41597V39.704C426.167 40.4133 426.316 40.936 426.615 41.272C426.951 41.5706 427.474 41.72 428.183 41.72H436.863ZM438.655 41.776L431.375 47.824C431.226 47.9733 430.983 48.104 430.647 48.216C430.348 48.328 430.012 48.384 429.639 48.384H420.959C420.063 48.384 419.41 48.1786 418.999 47.768C418.588 47.3573 418.383 46.704 418.383 45.808V9.51997C418.383 9.03464 418.439 8.62397 418.551 8.28797C418.7 7.95197 418.906 7.67197 419.167 7.44797L426.391 1.34397C426.578 1.19464 426.82 1.08264 427.119 1.00797C427.455 0.895969 427.81 0.83997 428.183 0.83997H436.863C437.759 0.83997 438.412 1.0453 438.823 1.45597C439.234 1.86664 439.439 2.51997 439.439 3.41597V8.51197C439.551 8.36264 439.663 8.2133 439.775 8.06397C439.887 7.8773 440.018 7.72797 440.167 7.61597L447.391 1.51197C447.652 1.28797 447.97 1.11997 448.343 1.00797C448.754 0.895969 449.202 0.83997 449.687 0.83997H458.311C459.244 0.83997 459.86 1.08264 460.159 1.56797C460.458 2.01597 460.42 2.65064 460.047 3.47197L454.671 15.792C456.687 16.0533 458.292 16.912 459.487 18.368C460.682 19.824 461.279 21.672 461.279 23.912V39.704C461.279 40.1893 461.204 40.6 461.055 40.936C460.943 41.272 460.756 41.552 460.495 41.776L453.215 47.824C453.066 47.9733 452.823 48.104 452.487 48.216C452.188 48.328 451.852 48.384 451.479 48.384H442.855C441.959 48.384 441.306 48.1786 440.895 47.768C440.484 47.3573 440.279 46.704 440.279 45.808V34.888C440.279 34.5146 440.204 34.216 440.055 33.992C439.906 33.768 439.7 33.6373 439.439 33.6V39.704C439.439 40.1893 439.364 40.6 439.215 40.936C439.103 41.272 438.916 41.552 438.655 41.776ZM479.182 24.752V26.488H501.022V24.752C501.022 23.744 500.929 22.8106 500.742 21.952C500.593 21.0933 500.388 20.2906 500.126 19.544L496.262 10.416C495.852 9.4453 495.422 8.64263 494.974 8.00797C494.526 7.33597 493.78 6.99997 492.734 6.99997H487.246C486.126 6.99997 485.342 7.33597 484.894 8.00797C484.446 8.64263 484.036 9.42664 483.662 10.36L480.078 19.544C479.817 20.2906 479.593 21.0933 479.406 21.952C479.257 22.8106 479.182 23.744 479.182 24.752ZM488.142 13.16C488.292 12.824 488.441 12.5813 488.59 12.432C488.777 12.2826 488.982 12.208 489.206 12.208H490.606C490.83 12.208 491.017 12.2826 491.166 12.432C491.353 12.5813 491.521 12.824 491.67 13.16L494.302 21.672H485.51L488.142 13.16ZM501.022 36.68V27.048H479.182V36.68H478.622V24.752C478.622 23.7066 478.697 22.7546 478.846 21.896C479.033 21 479.276 20.1413 479.574 19.32L483.158 10.136C483.569 9.09064 484.036 8.2133 484.558 7.50397C485.081 6.79464 485.977 6.43997 487.246 6.43997H492.734C493.966 6.43997 494.825 6.79464 495.31 7.50397C495.833 8.2133 496.318 9.1093 496.766 10.192L500.63 19.32C500.929 20.1413 501.153 21 501.302 21.896C501.489 22.7546 501.582 23.7066 501.582 24.752V36.68H501.022ZM484.95 39.704V31.864H494.862V39.704C494.862 40.4133 495.03 40.936 495.366 41.272C495.74 41.5706 496.3 41.72 497.046 41.72H505.502C506.212 41.72 506.716 41.5706 507.014 41.272C507.35 40.936 507.518 40.4133 507.518 39.704V24.92C507.518 23.8 507.332 22.512 506.958 21.056C506.622 19.6 506.081 17.9013 505.334 15.96L500.462 3.24797C500.238 2.6133 499.884 2.14664 499.398 1.84797C498.95 1.5493 498.372 1.39997 497.662 1.39997H482.598C481.852 1.39997 481.236 1.5493 480.75 1.84797C480.302 2.14664 479.966 2.6133 479.742 3.24797L474.87 15.96C474.124 17.9013 473.564 19.6 473.19 21.056C472.854 22.512 472.686 23.8 472.686 24.92V39.704C472.686 40.4133 472.836 40.936 473.134 41.272C473.47 41.5706 473.993 41.72 474.702 41.72H482.934C483.644 41.72 484.148 41.5706 484.446 41.272C484.782 40.936 484.95 40.4133 484.95 39.704ZM477.446 47.824C477.297 47.9733 477.054 48.104 476.718 48.216C476.42 48.328 476.084 48.384 475.71 48.384H467.478C466.582 48.384 465.929 48.1786 465.518 47.768C465.108 47.3573 464.902 46.704 464.902 45.808V31.024C464.902 29.8666 465.07 28.56 465.406 27.104C465.78 25.6106 466.358 23.856 467.142 21.84L471.958 9.18397C472.07 8.84797 472.201 8.56797 472.35 8.34397C472.537 8.08264 472.724 7.85863 472.91 7.67197L472.966 7.61597L480.134 1.62397C480.433 1.36264 480.788 1.17597 481.198 1.06397C481.609 0.914636 482.076 0.83997 482.598 0.83997H497.662C498.521 0.83997 499.212 1.02664 499.734 1.39997C500.294 1.73597 500.705 2.2773 500.966 3.02397L505.838 15.736C506.622 17.752 507.182 19.5066 507.518 21C507.892 22.456 508.078 23.7626 508.078 24.92V39.704C508.078 40.1893 508.004 40.6 507.854 40.936C507.742 41.272 507.556 41.552 507.294 41.776L500.014 47.824C499.865 47.9733 499.622 48.104 499.286 48.216C498.988 48.328 498.652 48.384 498.278 48.384H489.822C488.889 48.384 488.198 48.16 487.75 47.712C487.302 47.3013 487.078 46.6666 487.078 45.808V38.528H485.51V39.704C485.51 40.1893 485.436 40.6 485.286 40.936C485.174 41.272 484.988 41.552 484.726 41.776L477.446 47.824Z" fill="white"/>
<path d="M2.57604 48.384C1.68004 48.384 1.0267 48.1786 0.616037 47.768C0.205371 47.3573 3.71486e-05 46.704 3.71486e-05 45.808V39.256C3.71486e-05 38.7706 0.0560372 38.36 0.168037 38.024C0.317371 37.688 0.522704 37.408 0.784037 37.184L6.38404 32.48C4.40537 31.8826 2.83737 30.8746 1.68004 29.456C0.560037 28 3.71486e-05 25.928 3.71486e-05 23.24V17.36C3.71486e-05 15.68 0.280037 14.1866 0.840037 12.88C1.40004 11.5733 2.2027 10.472 3.24804 9.57597L10.528 3.47197C11.536 2.65064 12.7867 2.01597 14.28 1.56797C15.7734 1.08264 17.472 0.83997 19.376 0.83997H35.056C35.952 0.83997 36.6054 1.0453 37.016 1.45597C37.4267 1.86664 37.632 2.51997 37.632 3.41597V10.08C37.632 10.5653 37.5574 10.976 37.408 11.312C37.296 11.648 37.1094 11.928 36.848 12.152L31.808 16.352C34.16 16.8746 36.0454 17.864 37.464 19.32C38.92 20.7386 39.648 22.96 39.648 25.984V31.864C39.648 33.544 39.368 35.0373 38.808 36.344C38.248 37.6506 37.4267 38.752 36.344 39.648L29.12 45.696C28.0747 46.5546 26.8054 47.208 25.312 47.656C23.8187 48.1413 22.1387 48.384 20.272 48.384H2.57604ZM27.496 41.72C31.08 41.72 33.8987 40.88 35.952 39.2C38.0427 37.4826 39.088 35.0373 39.088 31.864V25.984C39.088 22.848 38.2854 20.608 36.68 19.264C35.0747 17.92 32.9654 17.0613 30.352 16.688L22.008 15.568C21.5227 15.5306 21.1494 15.344 20.888 15.008C20.6267 14.672 20.496 14.2613 20.496 13.776C20.496 13.2906 20.6267 12.8986 20.888 12.6C21.1494 12.264 21.5227 12.096 22.008 12.096H35.056C35.7654 12.096 36.2694 11.9466 36.568 11.648C36.904 11.312 37.072 10.7893 37.072 10.08V3.41597C37.072 2.70664 36.904 2.20264 36.568 1.90397C36.2694 1.56797 35.7654 1.39997 35.056 1.39997H19.376C15.7547 1.39997 12.9174 2.25864 10.864 3.97597C8.8107 5.65597 7.78404 8.08264 7.78404 11.256V17.136C7.78404 20.272 8.56804 22.512 10.136 23.856C11.7414 25.2 13.8507 26.0586 16.464 26.432L24.864 27.608C25.3494 27.6453 25.704 27.8133 25.928 28.112C26.1894 28.4106 26.32 28.8773 26.32 29.512C26.32 29.96 26.1894 30.352 25.928 30.688C25.704 30.9866 25.3494 31.136 24.864 31.136H9.80004C9.0907 31.136 8.56804 31.304 8.23204 31.64C7.93337 31.9386 7.78404 32.4426 7.78404 33.152V39.704C7.78404 40.4133 7.93337 40.936 8.23204 41.272C8.56804 41.5706 9.0907 41.72 9.80004 41.72H27.496ZM32.032 6.43997V6.99997H19.6C18.032 6.99997 16.7814 7.4293 15.848 8.28797C14.9147 9.14664 14.448 10.2293 14.448 11.536V16.128C14.448 17.4346 14.7094 18.3493 15.232 18.872C15.7547 19.3946 16.4454 19.7306 17.304 19.88L29.12 22.288C30.24 22.512 31.1547 22.9973 31.864 23.744C32.6107 24.4906 32.984 25.8346 32.984 27.776V31.024C32.984 32.6666 32.424 34.0293 31.304 35.112C30.184 36.1573 28.672 36.68 26.768 36.68H12.824V36.12H26.768C28.4854 36.12 29.848 35.6533 30.856 34.72C31.9014 33.7493 32.424 32.5173 32.424 31.024V27.776C32.424 26.0213 32.1067 24.8266 31.472 24.192C30.8747 23.52 30.0534 23.072 29.008 22.848L17.192 20.44C16.2214 20.2533 15.4187 19.88 14.784 19.32C14.1867 18.7226 13.888 17.6586 13.888 16.128V11.536C13.888 10.0426 14.4107 8.8293 15.456 7.89597C16.5014 6.9253 17.8827 6.43997 19.6 6.43997H32.032ZM74.088 48.384H45.584C44.688 48.384 44.0347 48.1786 43.624 47.768C43.2134 47.3573 43.008 46.704 43.008 45.808V9.51997C43.008 9.03464 43.064 8.62397 43.176 8.28797C43.3254 7.95197 43.5307 7.67197 43.792 7.44797L51.016 1.34397C51.2027 1.19464 51.4454 1.08264 51.744 1.00797C52.08 0.895969 52.4347 0.83997 52.808 0.83997H61.488C62.384 0.83997 63.0374 1.0453 63.448 1.45597C63.8587 1.86664 64.064 2.51997 64.064 3.41597V26.208L64.176 26.096L71.4 19.992C71.5867 19.8426 71.8294 19.7306 72.128 19.656C72.464 19.544 72.8187 19.488 73.192 19.488H81.312C82.208 19.488 82.8614 19.6933 83.272 20.104C83.6827 20.5146 83.888 21.168 83.888 22.064V39.704C83.888 40.1893 83.8134 40.6 83.664 40.936C83.552 41.272 83.3654 41.552 83.104 41.776L75.824 47.824C75.6747 47.9733 75.432 48.104 75.096 48.216C74.7974 48.328 74.4614 48.384 74.088 48.384ZM81.312 41.72C82.0214 41.72 82.5254 41.5706 82.824 41.272C83.16 40.936 83.328 40.4133 83.328 39.704V22.064C83.328 21.3546 83.16 20.8506 82.824 20.552C82.5254 20.216 82.0214 20.048 81.312 20.048H73.192C72.4827 20.048 71.96 20.216 71.624 20.552C71.3254 20.8506 71.176 21.3546 71.176 22.064V31.136H63.504V3.41597C63.504 2.70664 63.336 2.20264 63 1.90397C62.7014 1.56797 62.1974 1.39997 61.488 1.39997H52.808C52.0987 1.39997 51.576 1.56797 51.24 1.90397C50.9414 2.20264 50.792 2.70664 50.792 3.41597V39.704C50.792 40.4133 50.9414 40.936 51.24 41.272C51.576 41.5706 52.0987 41.72 52.808 41.72H81.312ZM56.896 36.68V6.43997H57.456V36.12H76.944V25.088H77.504V36.68H56.896ZM119.444 45.696C118.137 46.816 116.308 47.6746 113.956 48.272C111.604 48.9066 108.58 49.224 104.884 49.224C101.225 49.224 98.2197 48.832 95.8677 48.048C93.553 47.3013 91.7237 46.2933 90.3797 45.024C89.073 43.7546 88.1583 42.2986 87.6357 40.656C87.1503 39.0133 86.9077 37.3146 86.9077 35.56V18.144C86.9077 16.4266 87.1503 14.84 87.6357 13.384C88.121 11.8906 88.9983 10.6213 90.2677 9.57597L97.5477 3.52797C98.8543 2.40797 100.665 1.5493 102.98 0.951968C105.332 0.317301 108.374 -3.29018e-05 112.108 -3.29018e-05C115.766 -3.29018e-05 118.753 0.298634 121.068 0.895969C123.42 1.4933 125.249 2.3333 126.556 3.41597C127.9 4.4613 128.814 5.73064 129.3 7.22397C129.785 8.67997 130.028 10.2853 130.028 12.04V31.136C130.028 32.8533 129.785 34.44 129.3 35.896C128.814 37.352 127.937 38.6026 126.668 39.648L119.444 45.696ZM129.468 31.136V12.04C129.468 10.3226 129.206 8.7733 128.684 7.39197C128.198 5.9733 127.302 4.75997 125.996 3.75197C124.726 2.74397 122.953 1.95997 120.676 1.39997C118.436 0.83997 115.58 0.55997 112.108 0.55997C108.636 0.55997 105.761 0.83997 103.484 1.39997C101.206 1.95997 99.4143 2.74397 98.1077 3.75197C96.8383 4.75997 95.9423 5.9733 95.4197 7.39197C94.9343 8.7733 94.6917 10.3226 94.6917 12.04V31.136C94.6917 32.8533 94.9343 34.4213 95.4197 35.84C95.9423 37.2213 96.8383 38.416 98.1077 39.424C99.4143 40.3946 101.206 41.16 103.484 41.72C105.761 42.28 108.636 42.56 112.108 42.56C115.58 42.56 118.436 42.28 120.676 41.72C122.953 41.16 124.726 40.3946 125.996 39.424C127.302 38.416 128.198 37.2213 128.684 35.84C129.206 34.4213 129.468 32.8533 129.468 31.136ZM123.364 29.848C123.364 32.088 122.561 33.9173 120.956 35.336C119.35 36.7173 116.364 37.408 111.996 37.408C107.628 37.408 104.66 36.7173 103.092 35.336C101.524 33.9173 100.74 32.088 100.74 29.848V13.328C100.74 11.088 101.524 9.2773 103.092 7.89597C104.66 6.4773 107.628 5.76797 111.996 5.76797C116.364 5.76797 119.35 6.4773 120.956 7.89597C122.561 9.2773 123.364 11.088 123.364 13.328V29.848ZM101.3 29.848C101.3 31.9386 102.046 33.6373 103.54 34.944C105.033 36.2133 107.852 36.848 111.996 36.848C116.14 36.848 118.977 36.2133 120.508 34.944C122.038 33.6373 122.804 31.9386 122.804 29.848V13.328C122.804 11.2373 122.038 9.5573 120.508 8.28797C118.977 6.9813 116.14 6.32797 111.996 6.32797C107.852 6.32797 105.033 6.9813 103.54 8.28797C102.046 9.5573 101.3 11.2373 101.3 13.328V29.848ZM107.404 29.12V14.056C107.404 13.3466 107.684 12.7493 108.244 12.264C108.804 11.7413 110.092 11.48 112.108 11.48C114.124 11.48 115.412 11.7413 115.972 12.264C116.532 12.7493 116.812 13.3466 116.812 14.056V29.12C116.812 29.8666 116.532 30.5013 115.972 31.024C115.412 31.5093 114.124 31.752 112.108 31.752C110.092 31.752 108.804 31.5093 108.244 31.024C107.684 30.5013 107.404 29.8666 107.404 29.12ZM107.964 29.12C107.964 29.4933 108.038 29.8293 108.188 30.128C108.337 30.3893 108.617 30.6133 109.028 30.8V20.16C109.028 19.7866 108.953 19.4693 108.804 19.208C108.654 18.9093 108.374 18.6853 107.964 18.536V29.12ZM161.887 20.16C162.559 20.16 163.044 20.0106 163.343 19.712C163.642 19.4133 164.108 18.7786 164.743 17.808L171.575 7.39197C171.799 7.01864 172.042 6.77597 172.303 6.66397C172.602 6.51463 172.9 6.43997 173.199 6.43997H174.151C174.674 6.43997 175.047 6.5893 175.271 6.88797C175.532 7.1493 175.663 7.57864 175.663 8.17597V36.68H175.103V8.17597C175.103 7.8773 175.028 7.61597 174.879 7.39197C174.767 7.13064 174.524 6.99997 174.151 6.99997H173.311C173.05 6.99997 172.826 7.0373 172.639 7.11197C172.452 7.18663 172.247 7.41064 172.023 7.78397L165.191 18.088C164.519 19.096 163.996 19.7866 163.623 20.16C163.287 20.5333 162.708 20.72 161.887 20.72C161.066 20.72 160.468 20.5333 160.095 20.16C159.759 19.7866 159.255 19.096 158.583 18.088L151.751 7.78397C151.527 7.41064 151.303 7.18663 151.079 7.11197C150.892 7.0373 150.668 6.99997 150.407 6.99997H149.567C149.194 6.99997 148.951 7.13064 148.839 7.39197C148.727 7.61597 148.671 7.8773 148.671 8.17597V36.68H148.111V8.17597C148.111 7.57864 148.223 7.1493 148.447 6.88797C148.708 6.5893 149.082 6.43997 149.567 6.43997H150.519C150.818 6.43997 151.116 6.51463 151.415 6.66397C151.714 6.77597 151.975 7.01864 152.199 7.39197L159.031 17.808C159.666 18.7786 160.132 19.4133 160.431 19.712C160.73 20.0106 161.215 20.16 161.887 20.16ZM152.535 41.72C153.244 41.72 153.748 41.5706 154.047 41.272C154.383 40.936 154.551 40.4133 154.551 39.704V19.992L157.855 26.096C158.191 26.7306 158.583 27.1973 159.031 27.496C159.516 27.7573 160.114 27.888 160.823 27.888H163.063C163.772 27.888 164.351 27.7573 164.799 27.496C165.284 27.1973 165.695 26.7306 166.031 26.096L169.335 19.992V39.704C169.335 40.4133 169.484 40.936 169.783 41.272C170.119 41.5706 170.642 41.72 171.351 41.72H179.975C180.684 41.72 181.188 41.5706 181.487 41.272C181.823 40.936 181.991 40.4133 181.991 39.704V3.41597C181.991 2.70664 181.823 2.20264 181.487 1.90397C181.188 1.56797 180.684 1.39997 179.975 1.39997H170.903C170.306 1.39997 169.802 1.53064 169.391 1.79197C169.018 2.0533 168.663 2.48264 168.327 3.07997L163.343 12.208C163.156 12.544 162.988 12.7866 162.839 12.936C162.727 13.0853 162.559 13.16 162.335 13.16H161.831C161.607 13.16 161.42 13.0853 161.271 12.936C161.159 12.7866 161.01 12.544 160.823 12.208L155.783 3.07997C155.447 2.48264 155.074 2.0533 154.663 1.79197C154.29 1.53064 153.804 1.39997 153.207 1.39997H144.191C143.482 1.39997 142.959 1.56797 142.623 1.90397C142.324 2.20264 142.175 2.70664 142.175 3.41597V39.704C142.175 40.4133 142.324 40.936 142.623 41.272C142.959 41.5706 143.482 41.72 144.191 41.72H152.535ZM154.327 41.776L147.047 47.824C146.898 47.9733 146.655 48.104 146.319 48.216C146.02 48.328 145.684 48.384 145.311 48.384H136.967C136.071 48.384 135.418 48.1786 135.007 47.768C134.596 47.3573 134.391 46.704 134.391 45.808V9.51997C134.391 9.03464 134.447 8.62397 134.559 8.28797C134.708 7.95197 134.914 7.67197 135.175 7.44797L142.399 1.34397C142.586 1.19464 142.828 1.08264 143.127 1.00797C143.463 0.895969 143.818 0.83997 144.191 0.83997H153.207C153.916 0.83997 154.495 0.989302 154.943 1.28797C155.428 1.58663 155.876 2.09063 156.287 2.79997L160.095 9.79997L160.599 8.90397C160.748 8.64263 160.898 8.39997 161.047 8.17597C161.234 7.91464 161.42 7.7093 161.607 7.55997L168.831 1.51197C169.13 1.28797 169.428 1.11997 169.727 1.00797C170.063 0.895969 170.455 0.83997 170.903 0.83997H179.975C180.871 0.83997 181.524 1.0453 181.935 1.45597C182.346 1.86664 182.551 2.51997 182.551 3.41597V39.704C182.551 40.1893 182.476 40.6 182.327 40.936C182.215 41.272 182.028 41.552 181.767 41.776L174.487 47.824C174.338 47.9733 174.095 48.104 173.759 48.216C173.46 48.328 173.124 48.384 172.751 48.384H164.127C163.194 48.384 162.522 48.1786 162.111 47.768C161.738 47.3573 161.551 46.704 161.551 45.808V31.024L158.247 33.768C157.948 34.0293 157.594 34.2346 157.183 34.384C156.81 34.496 156.362 34.552 155.839 34.552H155.111V39.704C155.111 40.1893 155.036 40.6 154.887 40.936C154.775 41.272 154.588 41.552 154.327 41.776ZM208.547 48.384H199.475C198.542 48.384 197.87 48.1786 197.459 47.768C197.086 47.3573 196.899 46.704 196.899 45.808V38.808L188.443 27.496C187.547 26.3013 186.95 25.256 186.651 24.36C186.352 23.464 186.203 22.1013 186.203 20.272V9.51997C186.203 9.03464 186.259 8.62397 186.371 8.28797C186.52 7.95197 186.726 7.67197 186.987 7.44797L194.211 1.34397C194.398 1.19464 194.64 1.08264 194.939 1.00797C195.275 0.895969 195.63 0.83997 196.003 0.83997H204.627C205.523 0.83997 206.176 1.0453 206.587 1.45597C206.998 1.86664 207.203 2.51997 207.203 3.41597V12.6C207.203 12.936 207.222 13.272 207.259 13.608C207.296 13.944 207.408 14.2986 207.595 14.672L208.267 15.624V9.51997C208.267 9.03464 208.323 8.62397 208.435 8.28797C208.584 7.95197 208.79 7.67197 209.051 7.44797L216.275 1.34397C216.462 1.19464 216.704 1.08264 217.003 1.00797C217.339 0.895969 217.694 0.83997 218.067 0.83997H226.411C227.307 0.83997 227.96 1.0453 228.371 1.45597C228.782 1.86664 228.987 2.51997 228.987 3.41597V14.168C228.987 15.9973 228.838 17.36 228.539 18.256C228.24 19.152 227.643 20.1973 226.747 21.392L218.347 32.76V39.704C218.347 40.1893 218.272 40.6 218.123 40.936C218.011 41.272 217.824 41.552 217.563 41.776L210.283 47.824C210.134 47.9733 209.891 48.104 209.555 48.216C209.256 48.328 208.92 48.384 208.547 48.384ZM215.771 41.72C216.48 41.72 216.984 41.5706 217.283 41.272C217.619 40.936 217.787 40.4133 217.787 39.704V32.592L226.299 21.056C227.12 19.8986 227.68 18.8906 227.979 18.032C228.278 17.1733 228.427 15.8853 228.427 14.168V3.41597C228.427 2.70664 228.259 2.20264 227.923 1.90397C227.624 1.56797 227.12 1.39997 226.411 1.39997H218.067C217.358 1.39997 216.835 1.56797 216.499 1.90397C216.2 2.20264 216.051 2.70664 216.051 3.41597V12.6C216.051 12.9733 216.032 13.3653 215.995 13.776C215.958 14.1866 215.808 14.5786 215.547 14.952L212.971 18.984C212.784 19.32 212.579 19.5626 212.355 19.712C212.168 19.8613 211.926 19.936 211.627 19.936H211.067C210.768 19.936 210.507 19.8613 210.283 19.712C210.096 19.5626 209.91 19.32 209.723 18.984L207.147 14.952C206.886 14.5786 206.736 14.1866 206.699 13.776C206.662 13.3653 206.643 12.9733 206.643 12.6V3.41597C206.643 2.70664 206.475 2.20264 206.139 1.90397C205.84 1.56797 205.336 1.39997 204.627 1.39997H196.003C195.294 1.39997 194.771 1.56797 194.435 1.90397C194.136 2.20264 193.987 2.70664 193.987 3.41597V14.168C193.987 15.8853 194.118 17.1733 194.379 18.032C194.678 18.8906 195.256 19.8986 196.115 21.056L204.683 32.536V39.704C204.683 40.4133 204.832 40.936 205.131 41.272C205.467 41.5706 205.99 41.72 206.699 41.72H215.771ZM211.907 27.104H211.515V36.68H210.955V27.104H210.395C209.574 27.104 208.827 26.9173 208.155 26.544C207.52 26.1706 206.904 25.5733 206.307 24.752L200.875 17.192C200.464 16.632 200.222 15.9786 200.147 15.232C200.072 14.4853 200.035 13.7013 200.035 12.88V6.43997H200.595V12.88C200.595 13.664 200.632 14.4106 200.707 15.12C200.782 15.792 201.006 16.408 201.379 16.968L206.811 24.528C207.296 25.2746 207.856 25.7973 208.491 26.096C209.126 26.3946 209.76 26.544 210.395 26.544H211.907C212.616 26.544 213.251 26.3946 213.811 26.096C214.408 25.76 214.987 25.2373 215.547 24.528L221.147 16.968C221.52 16.4826 221.744 15.8853 221.819 15.176C221.894 14.4293 221.931 13.664 221.931 12.88V6.43997H222.491V12.88C222.491 13.7013 222.454 14.4853 222.379 15.232C222.342 15.9413 222.099 16.5946 221.651 17.192L216.051 24.752C215.454 25.5733 214.819 26.1706 214.147 26.544C213.512 26.9173 212.766 27.104 211.907 27.104ZM244.628 24.752V26.488H266.468V24.752C266.468 23.744 266.374 22.8106 266.188 21.952C266.038 21.0933 265.833 20.2906 265.572 19.544L261.708 10.416C261.297 9.4453 260.868 8.64263 260.42 8.00797C259.972 7.33597 259.225 6.99997 258.18 6.99997H252.692C251.572 6.99997 250.788 7.33597 250.34 8.00797C249.892 8.64263 249.481 9.42664 249.108 10.36L245.524 19.544C245.262 20.2906 245.038 21.0933 244.852 21.952C244.702 22.8106 244.628 23.744 244.628 24.752ZM253.588 13.16C253.737 12.824 253.886 12.5813 254.036 12.432C254.222 12.2826 254.428 12.208 254.652 12.208H256.052C256.276 12.208 256.462 12.2826 256.612 12.432C256.798 12.5813 256.966 12.824 257.116 13.16L259.748 21.672H250.956L253.588 13.16ZM266.468 36.68V27.048H244.628V36.68H244.068V24.752C244.068 23.7066 244.142 22.7546 244.292 21.896C244.478 21 244.721 20.1413 245.02 19.32L248.604 10.136C249.014 9.09064 249.481 8.2133 250.004 7.50397C250.526 6.79464 251.422 6.43997 252.692 6.43997H258.18C259.412 6.43997 260.27 6.79464 260.756 7.50397C261.278 8.2133 261.764 9.1093 262.212 10.192L266.076 19.32C266.374 20.1413 266.598 21 266.748 21.896C266.934 22.7546 267.028 23.7066 267.028 24.752V36.68H266.468ZM250.396 39.704V31.864H260.308V39.704C260.308 40.4133 260.476 40.936 260.812 41.272C261.185 41.5706 261.745 41.72 262.492 41.72H270.948C271.657 41.72 272.161 41.5706 272.46 41.272C272.796 40.936 272.964 40.4133 272.964 39.704V24.92C272.964 23.8 272.777 22.512 272.404 21.056C272.068 19.6 271.526 17.9013 270.78 15.96L265.908 3.24797C265.684 2.6133 265.329 2.14664 264.844 1.84797C264.396 1.5493 263.817 1.39997 263.108 1.39997H248.044C247.297 1.39997 246.681 1.5493 246.196 1.84797C245.748 2.14664 245.412 2.6133 245.188 3.24797L240.316 15.96C239.569 17.9013 239.009 19.6 238.636 21.056C238.3 22.512 238.132 23.8 238.132 24.92V39.704C238.132 40.4133 238.281 40.936 238.58 41.272C238.916 41.5706 239.438 41.72 240.148 41.72H248.38C249.089 41.72 249.593 41.5706 249.892 41.272C250.228 40.936 250.396 40.4133 250.396 39.704ZM242.892 47.824C242.742 47.9733 242.5 48.104 242.164 48.216C241.865 48.328 241.529 48.384 241.156 48.384H232.924C232.028 48.384 231.374 48.1786 230.964 47.768C230.553 47.3573 230.348 46.704 230.348 45.808V31.024C230.348 29.8666 230.516 28.56 230.852 27.104C231.225 25.6106 231.804 23.856 232.588 21.84L237.404 9.18397C237.516 8.84797 237.646 8.56797 237.796 8.34397C237.982 8.08264 238.169 7.85863 238.356 7.67197L238.412 7.61597L245.58 1.62397C245.878 1.36264 246.233 1.17597 246.644 1.06397C247.054 0.914636 247.521 0.83997 248.044 0.83997H263.108C263.966 0.83997 264.657 1.02664 265.18 1.39997C265.74 1.73597 266.15 2.2773 266.412 3.02397L271.284 15.736C272.068 17.752 272.628 19.5066 272.964 21C273.337 22.456 273.524 23.7626 273.524 24.92V39.704C273.524 40.1893 273.449 40.6 273.3 40.936C273.188 41.272 273.001 41.552 272.74 41.776L265.46 47.824C265.31 47.9733 265.068 48.104 264.732 48.216C264.433 48.328 264.097 48.384 263.724 48.384H255.268C254.334 48.384 253.644 48.16 253.196 47.712C252.748 47.3013 252.524 46.6666 252.524 45.808V38.528H250.956V39.704C250.956 40.1893 250.881 40.6 250.732 40.936C250.62 41.272 250.433 41.552 250.172 41.776L242.892 47.824ZM292.12 36.68H291.56V6.43997H292.12V21.336H304.272L310.712 6.43997H311.328L304.888 21.336H307.184C309.461 21.336 311.16 21.7653 312.28 22.624C313.4 23.4826 313.96 24.8826 313.96 26.824V36.68H313.4V26.824C313.4 25.032 312.877 23.7626 311.832 23.016C310.787 22.2693 309.237 21.896 307.184 21.896H292.12V36.68ZM296.152 41.72C296.861 41.72 297.365 41.5706 297.664 41.272C298 40.936 298.168 40.4133 298.168 39.704V26.88H305.56C306.157 26.88 306.605 27.048 306.904 27.384C307.203 27.72 307.352 28.1866 307.352 28.784V39.704C307.352 40.4133 307.501 40.936 307.8 41.272C308.136 41.5706 308.659 41.72 309.368 41.72H317.992C318.701 41.72 319.205 41.5706 319.504 41.272C319.84 40.936 320.008 40.4133 320.008 39.704V23.912C320.008 21.672 319.373 19.88 318.104 18.536C316.872 17.1546 315.211 16.408 313.12 16.296L318.832 3.24797C319.093 2.65064 319.112 2.20264 318.888 1.90397C318.664 1.56797 318.235 1.39997 317.6 1.39997H308.976C308.267 1.39997 307.688 1.5493 307.24 1.84797C306.792 2.1093 306.437 2.57597 306.176 3.24797L300.408 16.296H298.168V3.41597C298.168 2.70664 298 2.20264 297.664 1.90397C297.365 1.56797 296.861 1.39997 296.152 1.39997H287.472C286.763 1.39997 286.24 1.56797 285.904 1.90397C285.605 2.20264 285.456 2.70664 285.456 3.41597V39.704C285.456 40.4133 285.605 40.936 285.904 41.272C286.24 41.5706 286.763 41.72 287.472 41.72H296.152ZM297.944 41.776L290.664 47.824C290.515 47.9733 290.272 48.104 289.936 48.216C289.637 48.328 289.301 48.384 288.928 48.384H280.248C279.352 48.384 278.699 48.1786 278.288 47.768C277.877 47.3573 277.672 46.704 277.672 45.808V9.51997C277.672 9.03464 277.728 8.62397 277.84 8.28797C277.989 7.95197 278.195 7.67197 278.456 7.44797L285.68 1.34397C285.867 1.19464 286.109 1.08264 286.408 1.00797C286.744 0.895969 287.099 0.83997 287.472 0.83997H296.152C297.048 0.83997 297.701 1.0453 298.112 1.45597C298.523 1.86664 298.728 2.51997 298.728 3.41597V8.51197C298.84 8.36264 298.952 8.2133 299.064 8.06397C299.176 7.8773 299.307 7.72797 299.456 7.61597L306.68 1.51197C306.941 1.28797 307.259 1.11997 307.632 1.00797C308.043 0.895969 308.491 0.83997 308.976 0.83997H317.6C318.533 0.83997 319.149 1.08264 319.448 1.56797C319.747 2.01597 319.709 2.65064 319.336 3.47197L313.96 15.792C315.976 16.0533 317.581 16.912 318.776 18.368C319.971 19.824 320.568 21.672 320.568 23.912V39.704C320.568 40.1893 320.493 40.6 320.344 40.936C320.232 41.272 320.045 41.552 319.784 41.776L312.504 47.824C312.355 47.9733 312.112 48.104 311.776 48.216C311.477 48.328 311.141 48.384 310.768 48.384H302.144C301.248 48.384 300.595 48.1786 300.184 47.768C299.773 47.3573 299.568 46.704 299.568 45.808V34.888C299.568 34.5146 299.493 34.216 299.344 33.992C299.195 33.768 298.989 33.6373 298.728 33.6V39.704C298.728 40.1893 298.653 40.6 298.504 40.936C298.392 41.272 298.205 41.552 297.944 41.776ZM356.951 45.696C355.645 46.816 353.815 47.6746 351.463 48.272C349.111 48.9066 346.087 49.224 342.391 49.224C338.733 49.224 335.727 48.832 333.375 48.048C331.061 47.3013 329.231 46.2933 327.887 45.024C326.581 43.7546 325.666 42.2986 325.143 40.656C324.658 39.0133 324.415 37.3146 324.415 35.56V18.144C324.415 16.4266 324.658 14.84 325.143 13.384C325.629 11.8906 326.506 10.6213 327.775 9.57597L335.055 3.52797C336.362 2.40797 338.173 1.5493 340.487 0.951968C342.839 0.317301 345.882 -3.29018e-05 349.615 -3.29018e-05C353.274 -3.29018e-05 356.261 0.298634 358.575 0.895969C360.927 1.4933 362.757 2.3333 364.063 3.41597C365.407 4.4613 366.322 5.73064 366.807 7.22397C367.293 8.67997 367.535 10.2853 367.535 12.04V31.136C367.535 32.8533 367.293 34.44 366.807 35.896C366.322 37.352 365.445 38.6026 364.175 39.648L356.951 45.696ZM366.975 31.136V12.04C366.975 10.3226 366.714 8.7733 366.191 7.39197C365.706 5.9733 364.81 4.75997 363.503 3.75197C362.234 2.74397 360.461 1.95997 358.183 1.39997C355.943 0.83997 353.087 0.55997 349.615 0.55997C346.143 0.55997 343.269 0.83997 340.991 1.39997C338.714 1.95997 336.922 2.74397 335.615 3.75197C334.346 4.75997 333.45 5.9733 332.927 7.39197C332.442 8.7733 332.199 10.3226 332.199 12.04V31.136C332.199 32.8533 332.442 34.4213 332.927 35.84C333.45 37.2213 334.346 38.416 335.615 39.424C336.922 40.3946 338.714 41.16 340.991 41.72C343.269 42.28 346.143 42.56 349.615 42.56C353.087 42.56 355.943 42.28 358.183 41.72C360.461 41.16 362.234 40.3946 363.503 39.424C364.81 38.416 365.706 37.2213 366.191 35.84C366.714 34.4213 366.975 32.8533 366.975 31.136ZM360.871 29.848C360.871 32.088 360.069 33.9173 358.463 35.336C356.858 36.7173 353.871 37.408 349.503 37.408C345.135 37.408 342.167 36.7173 340.599 35.336C339.031 33.9173 338.247 32.088 338.247 29.848V13.328C338.247 11.088 339.031 9.2773 340.599 7.89597C342.167 6.4773 345.135 5.76797 349.503 5.76797C353.871 5.76797 356.858 6.4773 358.463 7.89597C360.069 9.2773 360.871 11.088 360.871 13.328V29.848ZM338.807 29.848C338.807 31.9386 339.554 33.6373 341.047 34.944C342.541 36.2133 345.359 36.848 349.503 36.848C353.647 36.848 356.485 36.2133 358.015 34.944C359.546 33.6373 360.311 31.9386 360.311 29.848V13.328C360.311 11.2373 359.546 9.5573 358.015 8.28797C356.485 6.9813 353.647 6.32797 349.503 6.32797C345.359 6.32797 342.541 6.9813 341.047 8.28797C339.554 9.5573 338.807 11.2373 338.807 13.328V29.848ZM344.911 29.12V14.056C344.911 13.3466 345.191 12.7493 345.751 12.264C346.311 11.7413 347.599 11.48 349.615 11.48C351.631 11.48 352.919 11.7413 353.479 12.264C354.039 12.7493 354.319 13.3466 354.319 14.056V29.12C354.319 29.8666 354.039 30.5013 353.479 31.024C352.919 31.5093 351.631 31.752 349.615 31.752C347.599 31.752 346.311 31.5093 345.751 31.024C345.191 30.5013 344.911 29.8666 344.911 29.12ZM345.471 29.12C345.471 29.4933 345.546 29.8293 345.695 30.128C345.845 30.3893 346.125 30.6133 346.535 30.8V20.16C346.535 19.7866 346.461 19.4693 346.311 19.208C346.162 18.9093 345.882 18.6853 345.471 18.536V29.12ZM381.755 48.384C380.896 48.384 380.205 48.216 379.683 47.88C379.16 47.5813 378.731 47.0213 378.395 46.2L372.907 32.48C372.571 31.6213 372.272 30.8933 372.011 30.296C371.787 29.6613 371.6 29.064 371.451 28.504C371.301 27.9066 371.189 27.2906 371.115 26.656C371.077 25.984 371.059 25.2 371.059 24.304V9.51997C371.059 9.03464 371.115 8.62397 371.227 8.28797C371.376 7.95197 371.581 7.67197 371.843 7.44797L379.067 1.34397C379.253 1.19464 379.496 1.08264 379.795 1.00797C380.131 0.895969 380.485 0.83997 380.859 0.83997H389.763C390.659 0.83997 391.331 1.06397 391.779 1.51197C392.264 1.92264 392.507 2.5573 392.507 3.41597V18.872C392.507 19.2453 392.544 19.6 392.619 19.936C392.693 20.272 392.787 20.6266 392.899 21L393.067 21.392V9.51997C393.067 9.03464 393.123 8.62397 393.235 8.28797C393.384 7.95197 393.589 7.67197 393.851 7.44797L401.075 1.34397C401.261 1.19464 401.504 1.08264 401.803 1.00797C402.139 0.895969 402.493 0.83997 402.867 0.83997H411.659C412.592 0.83997 413.245 1.0453 413.619 1.45597C414.029 1.86664 414.235 2.51997 414.235 3.41597V18.2C414.235 19.096 414.197 19.88 414.123 20.552C414.085 21.1866 413.992 21.8026 413.843 22.4C413.693 22.96 413.488 23.5573 413.227 24.192C413.003 24.7893 412.723 25.5173 412.387 26.376L406.899 40.096C406.787 40.432 406.637 40.7306 406.451 40.992C406.264 41.2533 406.077 41.4586 405.891 41.608L398.667 47.6C398.368 47.8613 398.013 48.048 397.603 48.16C397.229 48.3093 396.8 48.384 396.315 48.384H381.755ZM403.539 41.72C404.248 41.72 404.827 41.5893 405.275 41.328C405.76 41.0666 406.133 40.5813 406.395 39.872L411.883 26.152C412.219 25.3306 412.499 24.6213 412.723 24.024C412.947 23.3893 413.133 22.792 413.283 22.232C413.432 21.672 413.525 21.0933 413.563 20.496C413.637 19.8613 413.675 19.096 413.675 18.2V3.41597C413.675 2.70664 413.507 2.20264 413.171 1.90397C412.872 1.56797 412.368 1.39997 411.659 1.39997H402.867C402.157 1.39997 401.635 1.56797 401.299 1.90397C401 2.20264 400.851 2.70664 400.851 3.41597V18.816C400.851 19.1893 400.813 19.5626 400.739 19.936C400.664 20.3093 400.552 20.7013 400.403 21.112L397.771 29.008C397.659 29.3813 397.528 29.6426 397.379 29.792C397.229 29.904 397.005 29.96 396.707 29.96H396.091C395.792 29.96 395.568 29.904 395.419 29.792C395.269 29.6426 395.139 29.3813 395.027 29.008L392.395 21.168C392.245 20.7573 392.133 20.3653 392.059 19.992C391.984 19.6186 391.947 19.2453 391.947 18.872V3.41597C391.947 2.70664 391.76 2.20264 391.387 1.90397C391.013 1.56797 390.472 1.39997 389.763 1.39997H380.859C380.149 1.39997 379.627 1.56797 379.291 1.90397C378.992 2.20264 378.843 2.70664 378.843 3.41597V18.2C378.843 19.096 378.861 19.8613 378.899 20.496C378.973 21.0933 379.085 21.672 379.235 22.232C379.384 22.792 379.571 23.3893 379.795 24.024C380.019 24.6213 380.299 25.3306 380.635 26.152L386.123 39.872C386.384 40.5813 386.739 41.0666 387.187 41.328C387.672 41.5893 388.269 41.72 388.979 41.72H403.539ZM385.171 6.43997H385.731V18.536C385.731 19.5066 385.805 20.44 385.955 21.336C386.104 22.1946 386.328 22.9973 386.627 23.744L390.323 32.704C390.696 33.6746 391.107 34.496 391.555 35.168C392.04 35.8026 392.805 36.12 393.851 36.12H398.779C399.824 36.12 400.571 35.8026 401.019 35.168C401.504 34.496 401.933 33.6746 402.307 32.704L406.003 23.744C406.301 22.9973 406.525 22.1946 406.675 21.336C406.824 20.44 406.899 19.5066 406.899 18.536V6.43997H407.459V18.536C407.459 19.5813 407.384 20.552 407.235 21.448C407.123 22.3066 406.899 23.1466 406.563 23.968L402.867 32.928C402.419 34.0106 401.915 34.9066 401.355 35.616C400.795 36.3253 399.936 36.68 398.779 36.68H393.851C392.693 36.68 391.835 36.3253 391.275 35.616C390.715 34.9066 390.211 34.0106 389.763 32.928L386.067 23.968C385.731 23.1466 385.488 22.3066 385.339 21.448C385.227 20.552 385.171 19.5813 385.171 18.536V6.43997ZM432.831 36.68H432.271V6.43997H432.831V21.336H444.983L451.423 6.43997H452.039L445.599 21.336H447.895C450.172 21.336 451.871 21.7653 452.991 22.624C454.111 23.4826 454.671 24.8826 454.671 26.824V36.68H454.111V26.824C454.111 25.032 453.588 23.7626 452.543 23.016C451.498 22.2693 449.948 21.896 447.895 21.896H432.831V36.68ZM436.863 41.72C437.572 41.72 438.076 41.5706 438.375 41.272C438.711 40.936 438.879 40.4133 438.879 39.704V26.88H446.271C446.868 26.88 447.316 27.048 447.615 27.384C447.914 27.72 448.063 28.1866 448.063 28.784V39.704C448.063 40.4133 448.212 40.936 448.511 41.272C448.847 41.5706 449.37 41.72 450.079 41.72H458.703C459.412 41.72 459.916 41.5706 460.215 41.272C460.551 40.936 460.719 40.4133 460.719 39.704V23.912C460.719 21.672 460.084 19.88 458.815 18.536C457.583 17.1546 455.922 16.408 453.831 16.296L459.543 3.24797C459.804 2.65064 459.823 2.20264 459.599 1.90397C459.375 1.56797 458.946 1.39997 458.311 1.39997H449.687C448.978 1.39997 448.399 1.5493 447.951 1.84797C447.503 2.1093 447.148 2.57597 446.887 3.24797L441.119 16.296H438.879V3.41597C438.879 2.70664 438.711 2.20264 438.375 1.90397C438.076 1.56797 437.572 1.39997 436.863 1.39997H428.183C427.474 1.39997 426.951 1.56797 426.615 1.90397C426.316 2.20264 426.167 2.70664 426.167 3.41597V39.704C426.167 40.4133 426.316 40.936 426.615 41.272C426.951 41.5706 427.474 41.72 428.183 41.72H436.863ZM438.655 41.776L431.375 47.824C431.226 47.9733 430.983 48.104 430.647 48.216C430.348 48.328 430.012 48.384 429.639 48.384H420.959C420.063 48.384 419.41 48.1786 418.999 47.768C418.588 47.3573 418.383 46.704 418.383 45.808V9.51997C418.383 9.03464 418.439 8.62397 418.551 8.28797C418.7 7.95197 418.906 7.67197 419.167 7.44797L426.391 1.34397C426.578 1.19464 426.82 1.08264 427.119 1.00797C427.455 0.895969 427.81 0.83997 428.183 0.83997H436.863C437.759 0.83997 438.412 1.0453 438.823 1.45597C439.234 1.86664 439.439 2.51997 439.439 3.41597V8.51197C439.551 8.36264 439.663 8.2133 439.775 8.06397C439.887 7.8773 440.018 7.72797 440.167 7.61597L447.391 1.51197C447.652 1.28797 447.97 1.11997 448.343 1.00797C448.754 0.895969 449.202 0.83997 449.687 0.83997H458.311C459.244 0.83997 459.86 1.08264 460.159 1.56797C460.458 2.01597 460.42 2.65064 460.047 3.47197L454.671 15.792C456.687 16.0533 458.292 16.912 459.487 18.368C460.682 19.824 461.279 21.672 461.279 23.912V39.704C461.279 40.1893 461.204 40.6 461.055 40.936C460.943 41.272 460.756 41.552 460.495 41.776L453.215 47.824C453.066 47.9733 452.823 48.104 452.487 48.216C452.188 48.328 451.852 48.384 451.479 48.384H442.855C441.959 48.384 441.306 48.1786 440.895 47.768C440.484 47.3573 440.279 46.704 440.279 45.808V34.888C440.279 34.5146 440.204 34.216 440.055 33.992C439.906 33.768 439.7 33.6373 439.439 33.6V39.704C439.439 40.1893 439.364 40.6 439.215 40.936C439.103 41.272 438.916 41.552 438.655 41.776ZM479.182 24.752V26.488H501.022V24.752C501.022 23.744 500.929 22.8106 500.742 21.952C500.593 21.0933 500.388 20.2906 500.126 19.544L496.262 10.416C495.852 9.4453 495.422 8.64263 494.974 8.00797C494.526 7.33597 493.78 6.99997 492.734 6.99997H487.246C486.126 6.99997 485.342 7.33597 484.894 8.00797C484.446 8.64263 484.036 9.42664 483.662 10.36L480.078 19.544C479.817 20.2906 479.593 21.0933 479.406 21.952C479.257 22.8106 479.182 23.744 479.182 24.752ZM488.142 13.16C488.292 12.824 488.441 12.5813 488.59 12.432C488.777 12.2826 488.982 12.208 489.206 12.208H490.606C490.83 12.208 491.017 12.2826 491.166 12.432C491.353 12.5813 491.521 12.824 491.67 13.16L494.302 21.672H485.51L488.142 13.16ZM501.022 36.68V27.048H479.182V36.68H478.622V24.752C478.622 23.7066 478.697 22.7546 478.846 21.896C479.033 21 479.276 20.1413 479.574 19.32L483.158 10.136C483.569 9.09064 484.036 8.2133 484.558 7.50397C485.081 6.79464 485.977 6.43997 487.246 6.43997H492.734C493.966 6.43997 494.825 6.79464 495.31 7.50397C495.833 8.2133 496.318 9.1093 496.766 10.192L500.63 19.32C500.929 20.1413 501.153 21 501.302 21.896C501.489 22.7546 501.582 23.7066 501.582 24.752V36.68H501.022ZM484.95 39.704V31.864H494.862V39.704C494.862 40.4133 495.03 40.936 495.366 41.272C495.74 41.5706 496.3 41.72 497.046 41.72H505.502C506.212 41.72 506.716 41.5706 507.014 41.272C507.35 40.936 507.518 40.4133 507.518 39.704V24.92C507.518 23.8 507.332 22.512 506.958 21.056C506.622 19.6 506.081 17.9013 505.334 15.96L500.462 3.24797C500.238 2.6133 499.884 2.14664 499.398 1.84797C498.95 1.5493 498.372 1.39997 497.662 1.39997H482.598C481.852 1.39997 481.236 1.5493 480.75 1.84797C480.302 2.14664 479.966 2.6133 479.742 3.24797L474.87 15.96C474.124 17.9013 473.564 19.6 473.19 21.056C472.854 22.512 472.686 23.8 472.686 24.92V39.704C472.686 40.4133 472.836 40.936 473.134 41.272C473.47 41.5706 473.993 41.72 474.702 41.72H482.934C483.644 41.72 484.148 41.5706 484.446 41.272C484.782 40.936 484.95 40.4133 484.95 39.704ZM477.446 47.824C477.297 47.9733 477.054 48.104 476.718 48.216C476.42 48.328 476.084 48.384 475.71 48.384H467.478C466.582 48.384 465.929 48.1786 465.518 47.768C465.108 47.3573 464.902 46.704 464.902 45.808V31.024C464.902 29.8666 465.07 28.56 465.406 27.104C465.78 25.6106 466.358 23.856 467.142 21.84L471.958 9.18397C472.07 8.84797 472.201 8.56797 472.35 8.34397C472.537 8.08264 472.724 7.85863 472.91 7.67197L472.966 7.61597L480.134 1.62397C480.433 1.36264 480.788 1.17597 481.198 1.06397C481.609 0.914636 482.076 0.83997 482.598 0.83997H497.662C498.521 0.83997 499.212 1.02664 499.734 1.39997C500.294 1.73597 500.705 2.2773 500.966 3.02397L505.838 15.736C506.622 17.752 507.182 19.5066 507.518 21C507.892 22.456 508.078 23.7626 508.078 24.92V39.704C508.078 40.1893 508.004 40.6 507.854 40.936C507.742 41.272 507.556 41.552 507.294 41.776L500.014 47.824C499.865 47.9733 499.622 48.104 499.286 48.216C498.988 48.328 498.652 48.384 498.278 48.384H489.822C488.889 48.384 488.198 48.16 487.75 47.712C487.302 47.3013 487.078 46.6666 487.078 45.808V38.528H485.51V39.704C485.51 40.1893 485.436 40.6 485.286 40.936C485.174 41.272 484.988 41.552 484.726 41.776L477.446 47.824Z" fill="#E57777" fill-opacity="0.2"/>
</svg>
